HIERARCHY
ROOT Pelvis
{
	OFFSET 0.000000 0.941512 0.000000
	CHANNELS 6 Xposition Yposition Zposition Zrotation Yrotation Xrotation 
	JOINT Pelvis_L_Hip
	{
		OFFSET 0.000000 0.000000 0.000000
		CHANNELS 3 Zrotation Yrotation Xrotation
		JOINT L_Hip
		{
			OFFSET 0.062321 -0.080322 -0.016990
			CHANNELS 3 Zrotation Yrotation Xrotation
			JOINT L_Knee
			{
				OFFSET 0.093051 -0.381305 -0.029784
				CHANNELS 3 Zrotation Yrotation Xrotation
				JOINT L_Ankle
				{
					OFFSET -0.010371 -0.431000 -0.033614
					CHANNELS 3 Zrotation Yrotation Xrotation
					End Site #name: L_Foot
					{
						OFFSET 0.069299 -0.038670 0.119418
					}
				}
			}
		}
	}
	JOINT Pelvis_R_Hip
	{
		OFFSET 0.000000 0.000000 0.000000
		CHANNELS 3 Zrotation Yrotation Xrotation
		JOINT R_Hip
		{
			OFFSET -0.055334 -0.094904 -0.002373
			CHANNELS 3 Zrotation Yrotation Xrotation
			JOINT R_Knee
			{
				OFFSET -0.064207 -0.384370 -0.019592
				CHANNELS 3 Zrotation Yrotation Xrotation
				JOINT R_Ankle
				{
					OFFSET 0.025418 -0.419734 -0.065953
					CHANNELS 3 Zrotation Yrotation Xrotation
					End Site #name: R_Foot
					{
						OFFSET -0.057233 -0.039888 0.132134
					}
				}
			}
		}
	}
	JOINT Pelvis_Spine1
	{
		OFFSET 0.000000 0.000000 0.000000
		CHANNELS 3 Zrotation Yrotation Xrotation
		JOINT Spine1
		{
			OFFSET -0.005562 0.124093 -0.043360
			CHANNELS 3 Zrotation Yrotation Xrotation
			JOINT Spine2
			{
				OFFSET 0.012244 0.139499 0.029894
				CHANNELS 3 Zrotation Yrotation Xrotation
				JOINT Spine3
				{
					OFFSET -0.002556 0.056561 0.009225
					CHANNELS 3 Zrotation Yrotation Xrotation
					JOINT Spine3_Neck
					{
						OFFSET 0.000000 0.000000 0.000000
						CHANNELS 3 Zrotation Yrotation Xrotation
						JOINT Neck
						{
							OFFSET -0.005205 0.217920 -0.024551
							CHANNELS 3 Zrotation Yrotation Xrotation
							End Site #name: Head
							{
								OFFSET 0.002365 0.091850 0.046637
							}
						}
					}
					JOINT Spine3_L_Collar
					{
						OFFSET 0.000000 0.000000 0.000000
						CHANNELS 3 Zrotation Yrotation Xrotation
						JOINT L_Collar
						{
							OFFSET 0.072225 0.116603 -0.009480
							CHANNELS 3 Zrotation Yrotation Xrotation
							JOINT L_Shoulder
							{
								OFFSET 0.115937 -0.058643 -0.021018
								CHANNELS 3 Zrotation Yrotation Xrotation
								JOINT L_Elbow
								{
									OFFSET 0.021994 -0.254722 -0.024492
									CHANNELS 3 Zrotation Yrotation Xrotation
									End Site #name: L_Wrist
									{
										OFFSET 0.048810 -0.240214 0.103329
									}
								}
							}
						}
					}
					JOINT Spine3_R_Collar
					{
						OFFSET 0.000000 0.000000 0.000000
						CHANNELS 3 Zrotation Yrotation Xrotation
						JOINT R_Collar
						{
							OFFSET -0.073372 0.120704 -0.024611
							CHANNELS 3 Zrotation Yrotation Xrotation
							JOINT R_Shoulder
							{
								OFFSET -0.108089 -0.054969 -0.020504
								CHANNELS 3 Zrotation Yrotation Xrotation
								JOINT R_Elbow
								{
									OFFSET -0.033684 -0.260739 0.009889
									CHANNELS 3 Zrotation Yrotation Xrotation
									End Site #name: R_Wrist
									{
										OFFSET -0.067980 -0.232763 0.118463
									}
								}
							}
						}
					}
				}
			}
		}
	}
}
MOTION
Frames: 8
Frame Time: 0.041667
0.000000 0.910845 0.000000 -3.371999 1.955714 0.130427 0.000000 0.000000 0.000000 9.539225 -5.086922 -27.094558 -2.121153 -0.288247 37.803045 3.487826 0.030412 -5.989197 0.000000 0.000000 0.000000 0.758809 0.172615 -1.197158 -3.196776 1.447901 10.701819 -3.088932 9.143085 -12.031084 0.000000 0.000000 0.000000 4.054942 -0.257462 -4.846023 -2.104616 2.524212 34.292212 4.441994 1.311067 -29.057416 0.000000 0.000000 0.000000 -10.210951 7.436427 30.669655 0.000000 0.000000 0.000000 34.162395 -28.449446 -20.322988 10.212711 -0.852622 -19.092107 10.633509 -5.574688 -58.360903 0.000000 0.000000 0.000000 -34.334507 20.896578 -12.423239 3.283173 4.504615 -23.408388 -19.441209 2.924236 -73.556144 
0.019856 0.905612 0.023013 -3.770189 1.195733 1.055755 0.000000 0.000000 0.000000 12.116723 -5.000423 -29.762353 0.827586 -1.044231 27.916103 -2.208385 -2.067886 2.554705 0.000000 0.000000 0.000000 -0.093686 0.105327 -0.596265 -3.443440 1.468090 10.127625 -3.390859 9.410570 -12.693669 0.000000 0.000000 0.000000 4.037007 -0.334973 -4.287336 -1.737770 2.377478 33.699952 4.096904 0.527240 -29.406241 0.000000 0.000000 0.000000 -10.800895 8.080744 30.224707 0.000000 0.000000 0.000000 36.091826 -30.816262 -23.376982 13.896766 -0.493772 -19.862037 10.942367 -7.355041 -65.471692 0.000000 0.000000 0.000000 -34.685982 22.093037 -13.405207 1.849663 4.495400 -25.631275 -21.575507 1.865224 -83.572337 
0.045670 0.897490 0.050006 -4.567054 0.000884 2.041486 0.000000 0.000000 0.000000 14.284245 -4.782761 -32.106973 1.945004 -1.153882 23.689890 -7.239973 -4.399334 9.349323 0.000000 0.000000 0.000000 -1.137271 0.012274 0.320261 -3.661611 1.433991 9.070581 -3.596710 10.312246 -13.336762 0.000000 0.000000 0.000000 4.326011 -0.435128 -4.019016 -0.988665 2.096633 33.332136 3.639782 -0.668473 -29.615712 0.000000 0.000000 0.000000 -11.143771 8.644467 29.917554 0.000000 0.000000 0.000000 36.880481 -32.647225 -25.859093 17.307420 -0.268682 -17.468363 11.285345 -9.561552 -72.998385 0.000000 0.000000 0.000000 -34.296720 22.427919 -13.376105 0.380886 4.141920 -26.234328 -22.893849 1.823649 -92.360383 
0.076949 0.887486 0.079565 -5.878468 -1.735680 2.815935 0.000000 0.000000 0.000000 15.372867 -4.618667 -34.290134 0.615168 -0.818911 28.546363 -5.528686 -4.086107 6.934870 0.000000 0.000000 0.000000 -2.221656 -0.102898 1.575077 -3.987333 1.409694 7.924001 -3.738009 11.952650 -14.025104 0.000000 0.000000 0.000000 4.720711 -0.575412 -3.619017 0.075737 1.715238 33.072991 3.308737 -1.837442 -29.214071 0.000000 0.000000 0.000000 -11.024309 8.748172 28.753327 0.000000 0.000000 0.000000 36.673619 -33.009966 -26.602742 19.532578 -0.365795 -13.625435 11.271232 -12.550681 -79.994411 0.000000 0.000000 0.000000 -33.297159 21.554671 -12.089030 -1.464474 3.424377 -25.371490 -23.826786 2.142946 -99.392590 
0.110174 0.878049 0.106165 -7.240005 -3.168299 4.351042 0.000000 0.000000 0.000000 15.790734 -4.674482 -37.737119 -1.842619 0.161120 36.452801 -0.490936 -1.626986 -0.050278 0.000000 0.000000 0.000000 -3.397008 -0.013198 1.667716 -4.015157 1.322829 6.947482 -3.577519 12.756925 -13.827771 0.000000 0.000000 0.000000 4.500908 -0.616432 -3.128559 0.979531 1.384574 32.645607 3.632631 -2.535311 -28.374182 0.000000 0.000000 0.000000 -10.487513 8.298849 26.749905 0.000000 0.000000 0.000000 35.642934 -32.458310 -26.083205 21.202239 -0.727391 -8.783888 10.016690 -17.076622 -83.816288 0.000000 0.000000 0.000000 -32.025106 19.441451 -9.722324 -3.203936 2.645913 -23.567182 -24.425499 2.457507 -103.939588 
0.140625 0.870161 0.127031 -8.703753 -4.064470 6.821717 0.000000 0.000000 0.000000 16.383876 -4.649046 -41.229113 -3.760989 1.260490 41.333786 2.846683 1.070686 -4.566402 0.000000 0.000000 0.000000 -4.423436 0.206083 0.788395 -3.379403 1.013162 5.175024 -3.077661 12.153530 -12.534290 0.000000 0.000000 0.000000 4.490436 -0.730091 -2.423448 1.341745 1.257738 31.854391 4.046918 -2.900365 -27.758196 0.000000 0.000000 0.000000 -10.061969 7.861388 24.870741 0.000000 0.000000 0.000000 34.117082 -31.831974 -25.245427 22.922805 -1.507217 -1.692025 7.367118 -21.858877 -82.459746 0.000000 0.000000 0.000000 -30.725124 17.859684 -8.063083 -4.504878 1.908894 -20.526171 -24.792846 2.286166 -105.760877 
0.165269 0.862313 0.140810 -10.199938 -4.255587 9.671309 0.000000 0.000000 0.000000 17.478327 -4.520130 -45.863433 -5.310585 2.324352 45.775606 4.307060 2.915000 -6.311061 0.000000 0.000000 0.000000 -4.583713 0.444165 -0.783906 -3.357000 0.854607 3.573033 -2.616590 11.980415 -11.546793 0.000000 0.000000 0.000000 4.585252 -0.911212 -1.381132 1.432820 1.209445 31.083713 4.213471 -3.062314 -27.282849 0.000000 0.000000 0.000000 -9.905569 7.443727 22.414548 0.000000 0.000000 0.000000 33.131532 -31.133833 -24.383041 24.856138 -2.538185 5.026755 2.215822 -24.283026 -71.409157 0.000000 0.000000 0.000000 -29.540329 16.930542 -7.193809 -5.127384 1.390667 -17.290634 -25.056260 1.241369 -105.476164 
0.184145 0.854701 0.149592 -11.176311 -4.268838 11.447348 0.000000 0.000000 0.000000 17.608812 -4.572178 -48.587294 -5.730061 2.732532 48.101640 5.593124 4.521271 -7.922567 0.000000 0.000000 0.000000 -4.899678 0.557024 -1.370689 -3.408964 0.693623 1.782422 -1.933886 12.074877 -10.259584 0.000000 0.000000 0.000000 4.646923 -1.155407 0.275746 0.866826 1.443894 30.432429 4.344138 -2.915206 -26.497428 0.000000 0.000000 0.000000 -10.348252 7.527269 20.651331 0.000000 0.000000 0.000000 32.829267 -31.885198 -25.094549 26.290043 -3.251968 8.298824 -4.750332 -19.560545 -46.732996 0.000000 0.000000 0.000000 -29.080527 17.412035 -7.679179 -5.153534 1.006992 -13.795887 -25.089576 0.318823 -103.721086 
